<svg xmlns="http://www.w3.org/2000/svg" xmlns:xlink="http://www.w3.org/1999/xlink" aria-hidden="true" role="img" class="iconify iconify--carbon" width="32" height="32" preserveAspectRatio="xMidYMid meet" viewBox="0 0 32 32"><path d="M30 18v-2h-6v10h2v-4h3v-2h-3v-2h4z" fill="currentColor"></path><path d="M19 26h-4V16h4a3.003 3.003 0 0 1 3 3v4a3.003 3.003 0 0 1-3 3zm-2-2h2a1.001 1.001 0 0 0 1-1v-4a1.001 1.001 0 0 0-1-1h-2z" fill="currentColor"></path><path d="M11 16H6v10h2v-3h3a2.003 2.003 0 0 0 2-2v-3a2.002 2.002 0 0 0-2-2zm-3 5v-3h3l.001 3z" fill="currentColor"></path><path d="M22 14v-4a.91.91 0 0 0-.3-.7l-7-7A.909.909 0 0 0 14 2H4a2.006 2.006 0 0 0-2 2v24a2 2 0 0 0 2 2h16v-2H4V4h8v6a2.006 2.006 0 0 0 2 2h6v2zm-8-4V4.4l5.6 5.6z" fill="currentColor"></path></svg>